<svg width="307" height="101" viewBox="0 0 307 101" fill="none" xmlns="http://www.w3.org/2000/svg">
<path fill-rule="evenodd" clip-rule="evenodd" d="M14.5528 44.4462L20.5232 37.8954L33.3761 60.3673H50.6239L30.2251 26.7009L50.6239 0H32.6298L19.6111 18.9477L14.5528 26.618V0H0V60.3673H14.5528V44.4462ZM77.6151 56.3456C78.002 58.1146 78.4443 59.4551 78.9418 60.3673H92.9142V59.6624C91.698 57.4788 91.0623 54.3278 91.007 50.2093V30.3495C90.9241 25.4847 89.2242 21.6565 85.9073 18.8648C82.5904 16.0731 78.0711 14.6772 72.3495 14.6772C66.6279 14.6772 61.9152 16.0316 58.2113 18.7404C54.5351 21.4492 52.697 24.9734 52.697 29.313H66.6694C66.6694 26.0514 68.3278 24.4206 71.6447 24.4206C75.2103 24.4206 76.9932 26.4798 76.9932 30.5983V32.9615H72.6812C65.8263 32.9615 60.6022 34.2054 57.0089 36.693C53.4156 39.1807 51.619 42.8569 51.619 47.7217C51.619 51.5914 53.0978 54.8115 56.0553 57.3821C59.0129 59.925 62.6062 61.1965 66.8352 61.1965C71.4512 61.1965 75.0445 59.5795 77.6151 56.3456ZM74.5055 50.1264C73.3722 50.8727 71.9349 51.2458 70.1935 51.2458C68.8668 51.2458 67.775 50.8589 66.9181 50.0849C66.0613 49.2834 65.6328 48.2468 65.6328 46.9754C65.6328 42.6081 68.0652 40.4245 72.93 40.4245H76.9932V47.5973C76.4956 48.5371 75.6664 49.3801 74.5055 50.1264ZM140.429 38.2685C140.429 45.234 138.853 50.8036 135.702 54.9773C132.579 59.1234 128.35 61.1965 123.015 61.1965C118.896 61.1965 115.51 59.6901 112.857 56.6772V77.6151H98.8846V15.5064H111.945L112.359 19.6525C115.041 16.3357 118.565 14.6772 122.932 14.6772C128.46 14.6772 132.758 16.7226 135.826 20.8134C138.894 24.8766 140.429 30.4739 140.429 37.6052V38.2685ZM126.456 37.3979C126.456 29.4373 124.134 25.4571 119.491 25.4571C116.174 25.4571 113.963 26.6456 112.857 29.0227V46.6851C114.073 49.1728 116.312 50.4166 119.574 50.4166C124.024 50.4166 126.318 46.5746 126.456 38.8905V37.3979ZM161.366 61.1965C166.397 61.1965 170.391 59.3031 173.349 55.5163L173.763 60.3673H186.865V15.5064H172.81V46.9754C171.455 49.2695 169.175 50.4166 165.969 50.4166C162.237 50.4166 160.371 48.4956 160.371 44.6535V15.5064H146.399V44.5706C146.399 49.9329 147.657 54.0514 150.172 56.926C152.715 59.773 156.446 61.1965 161.366 61.1965ZM218.044 47.7631C218.044 46.5746 217.422 45.621 216.178 44.9023C214.934 44.1837 212.571 43.4374 209.088 42.6634C205.605 41.8895 202.731 40.8806 200.464 39.6368C198.198 38.3653 196.47 36.8312 195.282 35.0346C194.093 33.2379 193.499 31.1787 193.499 28.8569C193.499 24.7384 195.199 21.3524 198.598 18.6989C201.453 16.4475 205.049 15.1414 209.385 14.7805V4.59161H216.045V14.9134C220.1 15.4057 223.489 16.6675 226.211 18.6989C229.805 21.3801 231.601 24.9043 231.601 29.2715H217.588C217.588 25.6782 215.694 23.8816 211.907 23.8816C210.442 23.8816 209.212 24.2962 208.217 25.1254C207.222 25.927 206.725 26.9359 206.725 28.152C206.725 29.3959 207.333 30.4048 208.549 31.1787C209.765 31.9526 211.7 32.5884 214.354 33.0859C217.035 33.5834 219.384 34.1777 221.402 34.8687C228.146 37.1906 231.518 41.3505 231.518 47.3485C231.518 51.4393 229.694 54.77 226.046 57.3406C223.322 59.2743 219.988 60.4806 216.045 60.9598V71.1894H209.385V61.0887C206.565 60.8454 203.992 60.1903 201.667 59.1234C198.654 57.7414 196.304 55.8618 194.618 53.4847C192.932 51.1076 192.089 48.6062 192.089 45.9803H205.149C205.205 48.0533 205.896 49.5736 207.222 50.541C208.549 51.4808 210.249 51.9507 212.322 51.9507C214.229 51.9507 215.653 51.5637 216.592 50.7898C217.56 50.0158 218.044 49.007 218.044 47.7631ZM254.363 15.5064V4.35341H240.391V15.5064H234.669V25.2083H240.391V47.4729C240.391 52.0889 241.538 55.5302 243.832 57.7967C246.127 60.0632 249.678 61.1965 254.488 61.1965C257.224 61.1965 259.85 60.7957 262.365 59.9941V50.002C261.426 50.1679 260.265 50.2508 258.883 50.2508C257.086 50.2508 255.884 49.9191 255.276 49.2557C254.668 48.5923 254.363 47.4176 254.363 45.7315V25.2083H261.744V15.5064H254.363ZM292.549 60.3673C292.052 59.4551 291.609 58.1146 291.222 56.3456C288.652 59.5795 285.058 61.1965 280.442 61.1965C276.213 61.1965 272.62 59.925 269.663 57.3821C266.705 54.8115 265.226 51.5914 265.226 47.7217C265.226 42.8569 267.023 39.1807 270.616 36.693C274.21 34.2054 279.434 32.9615 286.288 32.9615H290.6V30.5983C290.6 26.4798 288.818 24.4206 285.252 24.4206C281.935 24.4206 280.277 26.0514 280.277 29.313H266.304C266.304 24.9734 268.142 21.4492 271.819 18.7404C275.522 16.0316 280.235 14.6772 285.957 14.6772C291.678 14.6772 296.198 16.0731 299.515 18.8648C302.831 21.6565 304.531 25.4847 304.614 30.3495V50.2093C304.67 54.3278 305.305 57.4788 306.521 59.6624V60.3673H292.549ZM283.801 51.2458C285.542 51.2458 286.98 50.8727 288.113 50.1264C289.274 49.3801 290.103 48.5371 290.6 47.5973V40.4245H286.537C281.672 40.4245 279.24 42.6081 279.24 46.9754C279.24 48.2468 279.669 49.2834 280.525 50.0849C281.382 50.8589 282.474 51.2458 283.801 51.2458Z" fill="black"/>
<path d="M60.4355 93.912C60.4355 93.4693 60.2793 93.1307 59.9668 92.8964C59.6543 92.6568 59.0918 92.4068 58.2793 92.1464C57.4668 91.8807 56.8236 91.6203 56.3496 91.3651C55.0579 90.6672 54.4121 89.7271 54.4121 88.5448C54.4121 87.9302 54.584 87.3833 54.9277 86.9042C55.2767 86.4198 55.7741 86.0422 56.4199 85.7714C57.071 85.5005 57.8001 85.3651 58.6074 85.3651C59.4199 85.3651 60.1439 85.5135 60.7793 85.8104C61.4147 86.1021 61.9069 86.5162 62.2559 87.0526C62.61 87.5891 62.7871 88.1984 62.7871 88.8807H60.4434C60.4434 88.3599 60.2793 87.9563 59.9512 87.6698C59.623 87.3781 59.1621 87.2323 58.5684 87.2323C57.9954 87.2323 57.5501 87.3547 57.2324 87.5995C56.9147 87.8391 56.7559 88.1568 56.7559 88.5526C56.7559 88.9224 56.9408 89.2323 57.3105 89.4823C57.6855 89.7323 58.235 89.9667 58.959 90.1854C60.2923 90.5865 61.2637 91.0839 61.873 91.6776C62.4824 92.2714 62.7871 93.0109 62.7871 93.8964C62.7871 94.8807 62.4147 95.6542 61.6699 96.2167C60.9251 96.774 59.9225 97.0526 58.6621 97.0526C57.7871 97.0526 56.9902 96.8938 56.2715 96.576C55.5527 96.2531 55.0033 95.813 54.623 95.2557C54.248 94.6984 54.0605 94.0526 54.0605 93.3182H56.4121C56.4121 94.5734 57.1621 95.201 58.6621 95.201C59.2194 95.201 59.6543 95.0891 59.9668 94.8651C60.2793 94.6359 60.4355 94.3182 60.4355 93.912ZM70.3234 85.5214L73.2452 93.7714L76.1515 85.5214H79.2296V96.8964H76.878V93.787L77.1124 88.4198L74.0421 96.8964H72.4327L69.3702 88.4276L69.6046 93.787V96.8964H67.2609V85.5214H70.3234ZM90.719 94.5526H86.6096L85.8284 96.8964H83.3362L87.5705 85.5214H89.7424L94.0002 96.8964H91.508L90.719 94.5526ZM87.2424 92.6542H90.0862L88.6565 88.3964L87.2424 92.6542ZM102.154 92.7323H100.286V96.8964H97.9427V85.5214H102.169C103.513 85.5214 104.55 85.8208 105.279 86.4198C106.008 87.0188 106.372 87.8651 106.372 88.9589C106.372 89.7349 106.203 90.3833 105.865 90.9042C105.531 91.4198 105.023 91.8313 104.341 92.1385L106.802 96.787V96.8964H104.286L102.154 92.7323ZM100.286 90.8339H102.177C102.766 90.8339 103.221 90.6854 103.544 90.3885C103.867 90.0865 104.029 89.6724 104.029 89.1464C104.029 88.6099 103.875 88.188 103.568 87.8807C103.266 87.5734 102.8 87.4198 102.169 87.4198H100.286V90.8339ZM119.213 87.4198H115.729V96.8964H113.385V87.4198H109.948V85.5214H119.213V87.4198ZM136.676 92.2479H132.176V96.8964H129.833V85.5214H137.239V87.4198H132.176V90.3573H136.676V92.2479ZM143.971 96.8964H141.627V85.5214H143.971V96.8964ZM158.28 96.8964H155.936L151.374 89.412V96.8964H149.03V85.5214H151.374L155.944 93.0214V85.5214H158.28V96.8964ZM169.77 94.5526H165.66L164.879 96.8964H162.387L166.621 85.5214H168.793L173.051 96.8964H170.559L169.77 94.5526ZM166.293 92.6542H169.137L167.707 88.3964L166.293 92.6542ZM186.243 96.8964H183.9L179.337 89.412V96.8964H176.993V85.5214H179.337L183.907 93.0214V85.5214H186.243V96.8964ZM200.1 93.1073C200.011 94.3313 199.558 95.2948 198.741 95.9979C197.928 96.701 196.855 97.0526 195.522 97.0526C194.063 97.0526 192.915 96.563 192.076 95.5839C191.243 94.5995 190.826 93.2505 190.826 91.537V90.8417C190.826 89.7479 191.019 88.7844 191.405 87.951C191.79 87.1177 192.34 86.4797 193.053 86.037C193.772 85.5891 194.605 85.3651 195.553 85.3651C196.866 85.3651 197.923 85.7167 198.725 86.4198C199.527 87.1229 199.991 88.1099 200.116 89.3807H197.772C197.715 88.6464 197.509 88.1151 197.155 87.787C196.806 87.4537 196.272 87.287 195.553 87.287C194.772 87.287 194.186 87.5682 193.795 88.1307C193.41 88.688 193.212 89.5552 193.201 90.7323V91.5917C193.201 92.8208 193.386 93.7193 193.756 94.287C194.131 94.8547 194.72 95.1385 195.522 95.1385C196.246 95.1385 196.785 94.9745 197.139 94.6464C197.498 94.313 197.704 93.8 197.756 93.1073H200.1ZM211.363 91.9667H206.863V95.0135H212.144V96.8964H204.519V85.5214H212.128V87.4198H206.863V90.1307H211.363V91.9667Z" fill="#52555F"/>
</svg>
