<svg aria-hidden="true" style="position: absolute; width: 0; height: 0; overflow: hidden;" version="1.1"
	xmlns="http://www.w3.org/2000/svg" xmlns:xlink="http://www.w3.org/1999/xlink">
	<defs>
		<symbol id="otherIncome" viewBox="0 0 24 32">
			<path
				d="M7.67 19.346c0-0.259-0.21-0.469-0.469-0.469v0h-4.546c-0.259 0-0.469 0.21-0.469 0.469v3.031c0 0.259 0.21 0.469 0.469 0.469h4.546c0.259 0 0.469-0.21 0.469-0.469v-3.030zM6.733 21.907h-3.609v-2.093h3.609v2.093zM18.819 21.835h2.525c0.259 0 0.469-0.21 0.469-0.469s-0.21-0.469-0.469-0.469v0h-2.526c-0.259 0-0.469 0.21-0.469 0.469s0.21 0.469 0.469 0.469v0zM18.819 19.815h2.525c0.259 0 0.469-0.21 0.469-0.469s-0.21-0.469-0.469-0.469v0h-2.526c-0.259 0-0.469 0.21-0.469 0.469s0.21 0.469 0.469 0.469v0z">
			</path>
			<path
				d="M23.365 24.402c-0.259 0-0.469 0.21-0.469 0.469v0 6.029c0 0.090-0.073 0.163-0.163 0.163v0h-21.466c-0.090-0-0.162-0.073-0.162-0.163 0 0 0 0 0 0v0-10.373c0-0.259-0.21-0.469-0.469-0.469s-0.469 0.21-0.469 0.469v0 10.373c0 0.607 0.494 1.101 1.1 1.101h21.466c0.607-0.001 1.1-0.493 1.1-1.101v-6.029c0-0.259-0.21-0.469-0.469-0.469v0zM22.733 15.91h-7.739v-2.378c2.422-1.131 4.103-3.59 4.103-6.434 0-3.915-3.183-7.098-7.098-7.098-1.358 0-2.679 0.385-3.818 1.114-1.105 0.713-1.981 1.692-2.553 2.848l-0.019 0.042c-0.030 0.060-0.047 0.13-0.047 0.205 0 0.259 0.21 0.469 0.469 0.469 0.184 0 0.344-0.107 0.42-0.261l0.001-0.003c1.040-2.143 3.166-3.475 5.546-3.475 3.397 0 6.16 2.763 6.16 6.16s-2.763 6.161-6.16 6.161-6.16-2.763-6.16-6.16c0-0.24 0.013-0.481 0.041-0.717 0.002-0.016 0.003-0.035 0.003-0.054 0-0.259-0.21-0.469-0.469-0.469-0.24 0-0.438 0.18-0.466 0.413l-0 0.002c-0.031 0.272-0.047 0.55-0.047 0.825 0 2.844 1.682 5.303 4.103 6.434v2.377h-7.739c-0.607 0.001-1.1 0.493-1.1 1.101v1.318c0 0.259 0.21 0.469 0.469 0.469s0.469-0.21 0.469-0.469v0-1.318c0-0.090 0.073-0.163 0.163-0.163h6.101l4.279 4.891c0.086 0.098 0.212 0.16 0.353 0.16s0.266-0.062 0.352-0.159l4.28-4.892h6.101c0.090 0 0.162 0.073 0.162 0.163v5.661c0 0.259 0.21 0.469 0.469 0.469s0.469-0.21 0.469-0.469v0-5.661c-0.001-0.607-0.492-1.099-1.099-1.1h-0zM12 20.718l-3.386-3.87h0.861c0.259 0 0.469-0.21 0.469-0.469v0-2.487c0.614 0.193 1.32 0.304 2.052 0.304 0.002 0 0.004 0 0.006 0h-0c0.715 0 1.406-0.107 2.057-0.304v2.487c0 0.259 0.21 0.469 0.469 0.469h0.861l-3.386 3.871z">
			</path>
			<path
				d="M2.656 27.454h1.263c0.259 0 0.469-0.21 0.469-0.469s-0.21-0.469-0.469-0.469v0h-1.263c-0.259 0-0.469 0.21-0.469 0.469s0.21 0.469 0.469 0.469v0zM7.202 26.517h-1.263c-0.259 0-0.469 0.21-0.469 0.469s0.21 0.469 0.469 0.469v0h1.263c0.259 0 0.469-0.21 0.469-0.469s-0.21-0.469-0.469-0.469v0zM10.485 27.454c0.259 0 0.469-0.21 0.469-0.469s-0.21-0.469-0.469-0.469v0h-1.263c-0.259 0-0.469 0.21-0.469 0.469s0.21 0.469 0.469 0.469v0h1.263zM13.767 27.454c0.259 0 0.469-0.21 0.469-0.469s-0.21-0.469-0.469-0.469v0h-1.263c-0.259 0-0.469 0.21-0.469 0.469s0.21 0.469 0.469 0.469v0h1.263zM2.656 29.98h5.051c0.259 0 0.469-0.21 0.469-0.469s-0.21-0.469-0.469-0.469v0h-5.051c-0.259 0-0.469 0.21-0.469 0.469s0.21 0.469 0.469 0.469v0zM15.825 28.248c0 0.955 0.777 1.731 1.731 1.731 0.497 0 0.946-0.211 1.263-0.549 0.316 0.337 0.765 0.549 1.263 0.549 0.954 0 1.731-0.777 1.731-1.731s-0.777-1.731-1.731-1.731c-0.498 0-0.947 0.211-1.263 0.549-0.316-0.338-0.765-0.549-1.262-0.549-0 0-0 0-0 0h0c-0.954 0-1.731 0.777-1.731 1.731zM20.082 27.454c0.429 0.012 0.773 0.363 0.773 0.794s-0.344 0.782-0.772 0.794l-0.001 0c-0.438 0-0.794-0.355-0.794-0.794v-0c0-0.438 0.356-0.794 0.794-0.794zM18.35 28.248c-0.012 0.429-0.363 0.773-0.794 0.773s-0.782-0.344-0.794-0.772l-0-0.001c0-0.438 0.356-0.794 0.794-0.794s0.794 0.357 0.794 0.794zM10.447 9.551c-0.071-0.045-0.157-0.072-0.25-0.072-0.259 0-0.469 0.21-0.469 0.469 0 0.16 0.081 0.302 0.204 0.386l0.002 0.001c0.606 0.397 1.020 0.514 1.555 0.544v0.517c0 0.259 0.21 0.469 0.469 0.469s0.469-0.21 0.469-0.469v-0.554c1.063-0.206 1.683-1.082 1.821-1.899 0.177-1.050-0.373-1.962-1.399-2.326-0.139-0.049-0.28-0.1-0.422-0.154v-2.248c0.358 0.084 0.571 0.265 0.589 0.281 0.083 0.075 0.193 0.121 0.315 0.121 0.259 0 0.469-0.21 0.469-0.469 0-0.136-0.058-0.258-0.15-0.344l-0-0c-0.027-0.025-0.48-0.433-1.222-0.543v-0.462c0-0.259-0.21-0.469-0.469-0.469s-0.469 0.21-0.469 0.469v0 0.497c-0.094 0.020-0.167 0.040-0.239 0.062l0.021-0.005c-0.675 0.203-1.181 0.782-1.317 1.509-0.126 0.663 0.087 1.302 0.554 1.669 0.248 0.194 0.558 0.373 0.981 0.561v2.848c-0.369-0.026-0.623-0.116-1.042-0.389zM11.086 5.794c-0.19-0.149-0.271-0.44-0.211-0.757 0.054-0.286 0.243-0.63 0.614-0.767v1.781c-0.154-0.082-0.286-0.167-0.41-0.262l0.007 0.005zM12.535 7.502c0.878 0.31 0.825 1.063 0.787 1.286-0.073 0.437-0.378 0.9-0.896 1.082v-2.406l0.109 0.039z">
			</path>
		</symbol>
		<symbol id="salary" viewBox="0 0 32 32">
			<path
				d="M15.413 12.95c-0.109-0.039-0.22-0.079-0.331-0.12v-2.017c0.243 0.098 0.453 0.218 0.643 0.363l-0.007-0.005c0.105 0.083 0.24 0.133 0.386 0.133 0.345 0 0.625-0.28 0.625-0.625 0-0.189-0.084-0.358-0.216-0.473l-0.001-0.001c-0.404-0.316-0.882-0.558-1.404-0.695l-0.027-0.006v-0.306c-0.011-0.337-0.286-0.606-0.625-0.606s-0.614 0.269-0.625 0.605l-0 0.001v0.277c-0.085 0.018-0.152 0.035-0.218 0.055l0.018-0.005c-0.718 0.217-1.237 0.822-1.387 1.62-0.146 0.775 0.107 1.549 0.644 1.97 0.245 0.193 0.543 0.369 0.943 0.552v2.643c-0.282-0.040-0.495-0.136-0.833-0.357-0.1-0.071-0.225-0.114-0.36-0.114-0.345 0-0.625 0.28-0.625 0.625 0 0.225 0.119 0.423 0.298 0.533l0.003 0.002c0.594 0.389 1.012 0.525 1.518 0.569v0.389c0.011 0.337 0.286 0.606 0.625 0.606s0.614-0.269 0.625-0.605l0-0.001v-0.449c1.040-0.263 1.706-1.151 1.853-2.027 0.189-1.126-0.422-2.143-1.522-2.532zM13.832 12.254c-0.062-0.040-0.12-0.080-0.173-0.121-0.169-0.132-0.245-0.442-0.186-0.754 0.019-0.105 0.099-0.415 0.359-0.581v1.456zM15.702 15.275c-0.068 0.385-0.297 0.706-0.615 0.894l-0.006 0.003v-2.011c0.678 0.286 0.662 0.869 0.621 1.114z">
			</path>
			<path
				d="M29.594 13.354l-3.969-2.622v-10.107c0-0.345-0.28-0.625-0.625-0.625h-15c-0.345 0-0.625 0.28-0.625 0.625v2.375h-2.375c-0.345 0-0.625 0.28-0.625 0.625v7.106l-3.969 2.623c-0.17 0.113-0.28 0.304-0.281 0.521v17.5c0 0.345 0.28 0.625 0.625 0.625h10.437c0.345 0 0.625-0.28 0.625-0.625s-0.28-0.625-0.625-0.625h-8.929l9.113-9.112 2.285 1.509c0.097 0.065 0.216 0.104 0.345 0.104s0.248-0.039 0.347-0.105l-0.002 0.001 2.285-1.509 9.112 9.113h-8.929c-0.337 0.011-0.606 0.286-0.606 0.625s0.269 0.614 0.605 0.625l0.001 0h10.438c0.345 0 0.625-0.28 0.625-0.625v-17.501c0-0.21-0.105-0.406-0.28-0.521zM28.116 13.875l-2.491 1.645v-3.29l2.491 1.645zM10.625 1.25h13.75v15.095l-1.75 1.156v-13.876c0-0.345-0.28-0.625-0.625-0.625h-11.375v-1.75zM6.375 12.23v3.29l-2.491-1.646 2.491-1.645zM3.375 29.866v-14.83l8.931 5.898-8.931 8.931zM16 21.876l-8.375-5.531v-12.095h13.75v14.075l-5.375 3.55zM28.625 15.037v14.83l-8.931-8.931 8.931-5.898z">
			</path>
			<path
				d="M16 30.75c-0.165 0-0.326 0.066-0.442 0.183s-0.183 0.278-0.183 0.442c0 0.165 0.066 0.326 0.183 0.442s0.277 0.183 0.442 0.183 0.326-0.067 0.442-0.183c0.117-0.117 0.183-0.278 0.183-0.442s-0.066-0.326-0.183-0.442c-0.113-0.113-0.269-0.182-0.442-0.183h-0z">
			</path>
		</symbol>
	</defs>
</svg>